<?xml version="1.0" encoding="UTF-8" standalone="no"?>
<!DOCTYPE svg PUBLIC "-//W3C//DTD SVG 1.1//EN"
 "http://www.w3.org/Graphics/SVG/1.1/DTD/svg11.dtd">
<!-- Generated by graphviz version 14.1.3 (0)
 -->
<!-- Pages: 1 -->
<svg width="906pt" height="569pt"
 viewBox="0.00 0.00 906.00 569.00" xmlns="http://www.w3.org/2000/svg" xmlns:xlink="http://www.w3.org/1999/xlink">
<g id="graph0" class="graph" transform="scale(1 1) rotate(0) translate(4 564.5)">
<polygon fill="white" stroke="none" points="-4,4 -4,-564.5 902,-564.5 902,4 -4,4"/>
<g id="clust1" class="cluster">
<title>cluster_BasePlugin</title>
<path fill="lightyellow" stroke="gray" stroke-width="2" d="M20,-238.1C20,-238.1 138,-238.1 138,-238.1 144,-238.1 150,-244.1 150,-250.1 150,-250.1 150,-540.5 150,-540.5 150,-546.5 144,-552.5 138,-552.5 138,-552.5 20,-552.5 20,-552.5 14,-552.5 8,-546.5 8,-540.5 8,-540.5 8,-250.1 8,-250.1 8,-244.1 14,-238.1 20,-238.1"/>
<text xml:space="preserve" text-anchor="middle" x="79" y="-535.2" font-family="Times,serif" font-size="14.00">BasePlugin</text>
</g>
<g id="clust2" class="cluster">
<title>cluster_ReporterPlugin</title>
<path fill="lightyellow" stroke="gray" stroke-width="2" d="M218,-123.05C218,-123.05 394,-123.05 394,-123.05 400,-123.05 406,-129.05 406,-135.05 406,-135.05 406,-425.45 406,-425.45 406,-431.45 400,-437.45 394,-437.45 394,-437.45 218,-437.45 218,-437.45 212,-437.45 206,-431.45 206,-425.45 206,-425.45 206,-135.05 206,-135.05 206,-129.05 212,-123.05 218,-123.05"/>
<text xml:space="preserve" text-anchor="middle" x="306" y="-420.15" font-family="Times,serif" font-size="14.00">ReporterPlugin</text>
</g>
<g id="clust3" class="cluster">
<title>cluster_HardwarePlugin</title>
<path fill="lightyellow" stroke="gray" stroke-width="2" d="M570,-8C570,-8 878,-8 878,-8 884,-8 890,-14 890,-20 890,-20 890,-540.5 890,-540.5 890,-546.5 884,-552.5 878,-552.5 878,-552.5 570,-552.5 570,-552.5 564,-552.5 558,-546.5 558,-540.5 558,-540.5 558,-20 558,-20 558,-14 564,-8 570,-8"/>
<text xml:space="preserve" text-anchor="middle" x="724" y="-535.2" font-family="Times,serif" font-size="14.00">HardwarePlugin</text>
</g>
<!-- NumberService -->
<g id="node1" class="node">
<title>NumberService</title>
<polygon fill="white" stroke="black" points="139.9,-519.25 18.1,-519.25 18.1,-476.2 139.9,-476.2 139.9,-519.25"/>
<text xml:space="preserve" text-anchor="middle" x="79" y="-493.45" font-family="Helvetica,sans-Serif" font-size="12.00">NumberService</text>
</g>
<!-- StringService -->
<g id="node2" class="node">
<title>StringService</title>
<polygon fill="white" stroke="black" points="133.15,-404.2 24.85,-404.2 24.85,-361.15 133.15,-361.15 133.15,-404.2"/>
<text xml:space="preserve" text-anchor="middle" x="79" y="-378.4" font-family="Helvetica,sans-Serif" font-size="12.00">StringService</text>
</g>
<!-- NumberService&#45;&gt;StringService -->
<!-- DeferredService -->
<g id="node3" class="node">
<title>DeferredService</title>
<polygon fill="white" stroke="black" points="141.77,-289.15 16.23,-289.15 16.23,-246.1 141.77,-246.1 141.77,-289.15"/>
<text xml:space="preserve" text-anchor="middle" x="79" y="-263.35" font-family="Helvetica,sans-Serif" font-size="12.00">DeferredService</text>
</g>
<!-- StringService&#45;&gt;DeferredService -->
<!-- ReporterFactory -->
<g id="node4" class="node">
<title>ReporterFactory</title>
<polygon fill="white" stroke="black" points="398.4,-404.2 273.6,-404.2 273.6,-361.15 398.4,-361.15 398.4,-404.2"/>
<text xml:space="preserve" text-anchor="middle" x="336" y="-378.4" font-family="Helvetica,sans-Serif" font-size="12.00">ReporterFactory</text>
</g>
<!-- ReportFacade -->
<g id="node6" class="node">
<title>ReportFacade</title>
<polygon fill="white" stroke="black" points="398.27,-289.15 287.73,-289.15 287.73,-246.1 398.27,-246.1 398.27,-289.15"/>
<text xml:space="preserve" text-anchor="middle" x="343" y="-263.35" font-family="Helvetica,sans-Serif" font-size="12.00">ReportFacade</text>
</g>
<!-- ReporterFactory&#45;&gt;ReportFacade -->
<!-- ReporterFactory&#45;&gt;ReportFacade -->
<g id="edge9" class="edge">
<title>ReporterFactory&#45;&gt;ReportFacade</title>
<path fill="none" stroke="black" d="M358.85,-360.68C365.95,-343.78 368.45,-319.77 365.6,-300.5"/>
<polygon fill="black" stroke="black" points="369.08,-300.02 363.54,-290.99 362.24,-301.51 369.08,-300.02"/>
</g>
<!-- ReporterA -->
<g id="node5" class="node">
<title>ReporterA</title>
<polygon fill="white" stroke="black" points="387.77,-174.1 298.23,-174.1 298.23,-131.05 387.77,-131.05 387.77,-174.1"/>
<text xml:space="preserve" text-anchor="middle" x="343" y="-148.3" font-family="Helvetica,sans-Serif" font-size="12.00">ReporterA</text>
</g>
<!-- ReporterA&#45;&gt;ReporterFactory -->
<g id="edge10" class="edge">
<title>ReporterA&#45;&gt;ReporterFactory</title>
<path fill="none" stroke="black" d="M309.03,-174.49C288.3,-189.37 263.63,-211.42 252,-238.1 242.93,-258.9 243.83,-267.98 252,-289.15 261.76,-314.42 281.99,-337.06 300.14,-353.61"/>
<polygon fill="black" stroke="black" points="297.34,-355.8 307.16,-359.78 301.96,-350.55 297.34,-355.8"/>
</g>
<!-- ReportFacade&#45;&gt;ReporterA -->
<!-- HardwareAbstraction -->
<g id="node7" class="node">
<title>HardwareAbstraction</title>
<polygon fill="white" stroke="black" points="740.4,-519.25 585.6,-519.25 585.6,-476.2 740.4,-476.2 740.4,-519.25"/>
<text xml:space="preserve" text-anchor="middle" x="663" y="-493.45" font-family="Helvetica,sans-Serif" font-size="12.00">HardwareAbstraction</text>
</g>
<!-- HardwareAbstraction&#45;&gt;ReportFacade -->
<g id="edge11" class="edge">
<title>HardwareAbstraction&#45;&gt;ReportFacade</title>
<path fill="none" stroke="black" d="M633.75,-475.88C575.67,-434.47 445.8,-341.9 381.12,-295.79"/>
<polygon fill="black" stroke="black" points="383.47,-293.17 373.29,-290.22 379.41,-298.87 383.47,-293.17"/>
</g>
<!-- HardwareA -->
<g id="node8" class="node">
<title>HardwareA</title>
<polygon fill="white" stroke="black" points="710.4,-404.2 615.6,-404.2 615.6,-361.15 710.4,-361.15 710.4,-404.2"/>
<text xml:space="preserve" text-anchor="middle" x="663" y="-378.4" font-family="Helvetica,sans-Serif" font-size="12.00">HardwareA</text>
</g>
<!-- HardwareAbstraction&#45;&gt;HardwareA -->
<!-- HardwareObserver -->
<g id="node9" class="node">
<title>HardwareObserver</title>
<polygon fill="white" stroke="black" points="734.02,-289.15 591.98,-289.15 591.98,-246.1 734.02,-246.1 734.02,-289.15"/>
<text xml:space="preserve" text-anchor="middle" x="663" y="-263.35" font-family="Helvetica,sans-Serif" font-size="12.00">HardwareObserver</text>
</g>
<!-- HardwareA&#45;&gt;HardwareObserver -->
<!-- HardwareFactory -->
<g id="node11" class="node">
<title>HardwareFactory</title>
<polygon fill="white" stroke="black" points="752.02,-59.05 621.98,-59.05 621.98,-16 752.02,-16 752.02,-59.05"/>
<text xml:space="preserve" text-anchor="middle" x="687" y="-33.25" font-family="Helvetica,sans-Serif" font-size="12.00">HardwareFactory</text>
</g>
<!-- HardwareA&#45;&gt;HardwareFactory -->
<g id="edge12" class="edge">
<title>HardwareA&#45;&gt;HardwareFactory</title>
<path fill="none" stroke="black" d="M700.72,-360.81C725.48,-344.8 755.8,-320.19 770,-289.15 800.7,-222.01 797.94,-191.38 770,-123.05 760.92,-100.84 742.88,-81.32 725.93,-66.65"/>
<polygon fill="black" stroke="black" points="728.32,-64.08 718.38,-60.4 723.85,-69.47 728.32,-64.08"/>
</g>
<!-- HardwareObserver&#45;&gt;ReporterA -->
<g id="edge13" class="edge">
<title>HardwareObserver&#45;&gt;ReporterA</title>
<path fill="none" stroke="black" d="M603.56,-245.63C544.98,-224.93 456.15,-193.55 398.85,-173.3"/>
<polygon fill="black" stroke="black" points="400.2,-170.07 389.6,-170.04 397.87,-176.67 400.2,-170.07"/>
</g>
<!-- HardwareB -->
<g id="node10" class="node">
<title>HardwareB</title>
<polygon fill="white" stroke="black" points="734.4,-174.1 639.6,-174.1 639.6,-131.05 734.4,-131.05 734.4,-174.1"/>
<text xml:space="preserve" text-anchor="middle" x="687" y="-148.3" font-family="Helvetica,sans-Serif" font-size="12.00">HardwareB</text>
</g>
<!-- HardwareObserver&#45;&gt;HardwareB -->
<!-- HardwareObserver&#45;&gt;HardwareFactory -->
<g id="edge14" class="edge">
<title>HardwareObserver&#45;&gt;HardwareFactory</title>
<path fill="none" stroke="black" d="M643.66,-245.71C620.28,-217.77 586.15,-166.7 604,-123.05 613.08,-100.84 631.12,-81.32 648.07,-66.65"/>
<polygon fill="black" stroke="black" points="650.15,-69.47 655.62,-60.4 645.68,-64.08 650.15,-69.47"/>
</g>
<!-- HardwareB&#45;&gt;HardwareFactory -->
<!-- HardwareB&#45;&gt;HardwareFactory -->
<g id="edge15" class="edge">
<title>HardwareB&#45;&gt;HardwareFactory</title>
<path fill="none" stroke="black" d="M708.55,-130.58C714.61,-113.68 715.61,-89.67 711.57,-70.4"/>
<polygon fill="black" stroke="black" points="714.97,-69.56 708.92,-60.87 708.23,-71.44 714.97,-69.56"/>
</g>
<!-- HardwareFactory&#45;&gt;HardwareAbstraction -->
<g id="edge16" class="edge">
<title>HardwareFactory&#45;&gt;HardwareAbstraction</title>
<path fill="none" stroke="black" d="M731.32,-59.46C755.83,-73.64 784.07,-94.94 798,-123.05 830.77,-189.2 810.39,-216.37 798,-289.15 786.28,-358 787.93,-381.59 746,-437.45 736.77,-449.75 724.24,-460.53 711.73,-469.4"/>
<polygon fill="black" stroke="black" points="709.81,-466.47 703.47,-474.96 713.72,-472.28 709.81,-466.47"/>
</g>
</g>
</svg>
