<?xml version="1.0" encoding="UTF-8" standalone="no"?>
<!DOCTYPE svg PUBLIC "-//W3C//DTD SVG 1.1//EN"
 "http://www.w3.org/Graphics/SVG/1.1/DTD/svg11.dtd">
<!-- Generated by graphviz version 14.1.3 (0)
 -->
<!-- Pages: 1 -->
<svg width="928pt" height="453pt"
 viewBox="0.00 0.00 928.00 453.00" xmlns="http://www.w3.org/2000/svg" xmlns:xlink="http://www.w3.org/1999/xlink">
<g id="graph0" class="graph" transform="scale(1 1) rotate(0) translate(4 449.45)">
<polygon fill="white" stroke="none" points="-4,4 -4,-449.45 924,-449.45 924,4 -4,4"/>
<g id="clust1" class="cluster">
<title>cluster_BasePlugin</title>
<path fill="lightyellow" stroke="gray" stroke-width="2" d="M20,-238.1C20,-238.1 134,-238.1 134,-238.1 140,-238.1 146,-244.1 146,-250.1 146,-250.1 146,-425.45 146,-425.45 146,-431.45 140,-437.45 134,-437.45 134,-437.45 20,-437.45 20,-437.45 14,-437.45 8,-431.45 8,-425.45 8,-425.45 8,-250.1 8,-250.1 8,-244.1 14,-238.1 20,-238.1"/>
<text xml:space="preserve" text-anchor="middle" x="77" y="-420.15" font-family="Times,serif" font-size="14.00">BasePlugin</text>
</g>
<g id="clust2" class="cluster">
<title>cluster_ReporterPlugin</title>
<path fill="lightyellow" stroke="gray" stroke-width="2" d="M710,-8C710,-8 900,-8 900,-8 906,-8 912,-14 912,-20 912,-20 912,-310.4 912,-310.4 912,-316.4 906,-322.4 900,-322.4 900,-322.4 710,-322.4 710,-322.4 704,-322.4 698,-316.4 698,-310.4 698,-310.4 698,-20 698,-20 698,-14 704,-8 710,-8"/>
<text xml:space="preserve" text-anchor="middle" x="805" y="-305.1" font-family="Times,serif" font-size="14.00">ReporterPlugin</text>
</g>
<g id="clust4" class="cluster">
<title>cluster_HardwarePlugin</title>
<path fill="lightyellow" stroke="gray" stroke-width="2" d="M214,-123.05C214,-123.05 674,-123.05 674,-123.05 680,-123.05 686,-129.05 686,-135.05 686,-135.05 686,-425.45 686,-425.45 686,-431.45 680,-437.45 674,-437.45 674,-437.45 214,-437.45 214,-437.45 208,-437.45 202,-431.45 202,-425.45 202,-425.45 202,-135.05 202,-135.05 202,-129.05 208,-123.05 214,-123.05"/>
<text xml:space="preserve" text-anchor="middle" x="444" y="-420.15" font-family="Times,serif" font-size="14.00">HardwarePlugin</text>
</g>
<!-- StringService -->
<g id="node1" class="node">
<title>StringService</title>
<polygon fill="white" stroke="black" points="131.15,-404.2 22.85,-404.2 22.85,-361.15 131.15,-361.15 131.15,-404.2"/>
<text xml:space="preserve" text-anchor="middle" x="77" y="-378.4" font-family="Helvetica,sans-Serif" font-size="12.00">StringService</text>
</g>
<!-- NumberService -->
<g id="node2" class="node">
<title>NumberService</title>
<polygon fill="white" stroke="black" points="137.9,-289.15 16.1,-289.15 16.1,-246.1 137.9,-246.1 137.9,-289.15"/>
<text xml:space="preserve" text-anchor="middle" x="77" y="-263.35" font-family="Helvetica,sans-Serif" font-size="12.00">NumberService</text>
</g>
<!-- StringService&#45;&gt;NumberService -->
<!-- ReporterA -->
<g id="node3" class="node">
<title>ReporterA</title>
<polygon fill="white" stroke="black" points="862.77,-289.15 773.23,-289.15 773.23,-246.1 862.77,-246.1 862.77,-289.15"/>
<text xml:space="preserve" text-anchor="middle" x="818" y="-263.35" font-family="Helvetica,sans-Serif" font-size="12.00">ReporterA</text>
</g>
<!-- ReporterFactory -->
<g id="node4" class="node">
<title>ReporterFactory</title>
<polygon fill="white" stroke="black" points="904.4,-174.1 779.6,-174.1 779.6,-131.05 904.4,-131.05 904.4,-174.1"/>
<text xml:space="preserve" text-anchor="middle" x="842" y="-148.3" font-family="Helvetica,sans-Serif" font-size="12.00">ReporterFactory</text>
</g>
<!-- ReporterA&#45;&gt;ReporterFactory -->
<!-- ReporterA&#45;&gt;ReporterFactory -->
<g id="edge8" class="edge">
<title>ReporterA&#45;&gt;ReporterFactory</title>
<path fill="none" stroke="black" d="M844.01,-245.63C853.61,-228.81 859.7,-204.94 859.81,-185.72"/>
<polygon fill="black" stroke="black" points="863.31,-185.72 859.17,-175.97 856.33,-186.18 863.31,-185.72"/>
</g>
<!-- ReportFacade -->
<g id="node5" class="node">
<title>ReportFacade</title>
<polygon fill="white" stroke="black" points="816.27,-59.05 705.73,-59.05 705.73,-16 816.27,-16 816.27,-59.05"/>
<text xml:space="preserve" text-anchor="middle" x="761" y="-33.25" font-family="Helvetica,sans-Serif" font-size="12.00">ReportFacade</text>
</g>
<!-- ReporterFactory&#45;&gt;ReportFacade -->
<g id="edge9" class="edge">
<title>ReporterFactory&#45;&gt;ReportFacade</title>
<path fill="none" stroke="black" d="M826.95,-130.58C814.45,-113.13 796.51,-88.08 782.49,-68.52"/>
<polygon fill="black" stroke="black" points="785.52,-66.73 776.85,-60.64 779.83,-70.81 785.52,-66.73"/>
</g>
<!-- ReportFacade&#45;&gt;ReporterA -->
<!-- HardwareObserver -->
<g id="node6" class="node">
<title>HardwareObserver</title>
<polygon fill="white" stroke="black" points="672.02,-404.2 529.98,-404.2 529.98,-361.15 672.02,-361.15 672.02,-404.2"/>
<text xml:space="preserve" text-anchor="middle" x="601" y="-378.4" font-family="Helvetica,sans-Serif" font-size="12.00">HardwareObserver</text>
</g>
<!-- HardwareObserver&#45;&gt;ReporterA -->
<g id="edge10" class="edge">
<title>HardwareObserver&#45;&gt;ReporterA</title>
<path fill="none" stroke="black" d="M641.31,-360.68C677.09,-342.04 729.5,-314.73 767.96,-294.7"/>
<polygon fill="black" stroke="black" points="769.31,-297.94 776.57,-290.21 766.08,-291.73 769.31,-297.94"/>
</g>
<!-- HardwareAbstraction -->
<g id="node7" class="node">
<title>HardwareAbstraction</title>
<polygon fill="white" stroke="black" points="678.4,-289.15 523.6,-289.15 523.6,-246.1 678.4,-246.1 678.4,-289.15"/>
<text xml:space="preserve" text-anchor="middle" x="601" y="-263.35" font-family="Helvetica,sans-Serif" font-size="12.00">HardwareAbstraction</text>
</g>
<!-- HardwareObserver&#45;&gt;HardwareAbstraction -->
<!-- HardwareFactory -->
<g id="node10" class="node">
<title>HardwareFactory</title>
<polygon fill="white" stroke="black" points="442.02,-174.1 311.98,-174.1 311.98,-131.05 442.02,-131.05 442.02,-174.1"/>
<text xml:space="preserve" text-anchor="middle" x="377" y="-148.3" font-family="Helvetica,sans-Serif" font-size="12.00">HardwareFactory</text>
</g>
<!-- HardwareObserver&#45;&gt;HardwareFactory -->
<g id="edge11" class="edge">
<title>HardwareObserver&#45;&gt;HardwareFactory</title>
<path fill="none" stroke="black" d="M548,-360.71C527.77,-351.04 505.4,-338.17 488,-322.4 443.88,-282.42 409.46,-221.24 391.28,-184.54"/>
<polygon fill="black" stroke="black" points="394.56,-183.27 387.04,-175.8 388.26,-186.32 394.56,-183.27"/>
</g>
<!-- HardwareAbstraction&#45;&gt;ReportFacade -->
<g id="edge12" class="edge">
<title>HardwareAbstraction&#45;&gt;ReportFacade</title>
<path fill="none" stroke="black" d="M615.48,-245.98C643.85,-205.54 706.84,-115.73 739.87,-68.65"/>
<polygon fill="black" stroke="black" points="742.69,-70.72 745.57,-60.53 736.96,-66.7 742.69,-70.72"/>
</g>
<!-- HardwareAbstraction&#45;&gt;HardwareFactory -->
<!-- HardwareA -->
<g id="node8" class="node">
<title>HardwareA</title>
<polygon fill="white" stroke="black" points="304.4,-404.2 209.6,-404.2 209.6,-361.15 304.4,-361.15 304.4,-404.2"/>
<text xml:space="preserve" text-anchor="middle" x="257" y="-378.4" font-family="Helvetica,sans-Serif" font-size="12.00">HardwareA</text>
</g>
<!-- HardwareB -->
<g id="node9" class="node">
<title>HardwareB</title>
<polygon fill="white" stroke="black" points="378.4,-289.15 283.6,-289.15 283.6,-246.1 378.4,-246.1 378.4,-289.15"/>
<text xml:space="preserve" text-anchor="middle" x="331" y="-263.35" font-family="Helvetica,sans-Serif" font-size="12.00">HardwareB</text>
</g>
<!-- HardwareA&#45;&gt;HardwareB -->
<!-- HardwareA&#45;&gt;HardwareFactory -->
<g id="edge14" class="edge">
<title>HardwareA&#45;&gt;HardwareFactory</title>
<path fill="none" stroke="black" d="M225.22,-360.7C203.47,-331.35 190.87,-277.21 212,-238.1 229.61,-205.51 265.86,-183.46 301.14,-170.07"/>
<polygon fill="black" stroke="black" points="301.88,-173.53 310.12,-166.87 299.52,-166.94 301.88,-173.53"/>
</g>
<!-- HardwareB&#45;&gt;HardwareFactory -->
<g id="edge15" class="edge">
<title>HardwareB&#45;&gt;HardwareFactory</title>
<path fill="none" stroke="black" d="M339.54,-245.63C346.48,-228.57 356.37,-204.26 364.25,-184.91"/>
<polygon fill="black" stroke="black" points="367.4,-186.45 367.93,-175.86 360.92,-183.81 367.4,-186.45"/>
</g>
<!-- HardwareFactory&#45;&gt;HardwareAbstraction -->
<g id="edge13" class="edge">
<title>HardwareFactory&#45;&gt;HardwareAbstraction</title>
<path fill="none" stroke="black" d="M439.9,-174.46C483.1,-192.91 537.2,-219.91 571.42,-239.92"/>
<polygon fill="black" stroke="black" points="569.27,-242.71 579.65,-244.85 572.87,-236.71 569.27,-242.71"/>
</g>
<!-- HardwareFactory&#45;&gt;HardwareA -->
</g>
</svg>
