<?xml version="1.0" encoding="UTF-8" standalone="no"?>
<!DOCTYPE svg PUBLIC "-//W3C//DTD SVG 1.1//EN"
 "http://www.w3.org/Graphics/SVG/1.1/DTD/svg11.dtd">
<!-- Generated by graphviz version 14.1.4 (0)
 -->
<!-- Pages: 1 -->
<svg width="1087pt" height="453pt"
 viewBox="0.00 0.00 1087.00 453.00" xmlns="http://www.w3.org/2000/svg" xmlns:xlink="http://www.w3.org/1999/xlink">
<g id="graph0" class="graph" transform="scale(1 1) rotate(0) translate(4 449.45)">
<polygon fill="white" stroke="none" points="-4,4 -4,-449.45 1083,-449.45 1083,4 -4,4"/>
<g id="clust1" class="cluster">
<title>cluster_ReporterPlugin</title>
<path fill="lightyellow" stroke="gray" stroke-width="2" d="M519,-8C519,-8 709,-8 709,-8 715,-8 721,-14 721,-20 721,-20 721,-310.4 721,-310.4 721,-316.4 715,-322.4 709,-322.4 709,-322.4 519,-322.4 519,-322.4 513,-322.4 507,-316.4 507,-310.4 507,-310.4 507,-20 507,-20 507,-14 513,-8 519,-8"/>
<text xml:space="preserve" text-anchor="middle" x="614" y="-305.1" font-family="Times,serif" font-size="14.00">ReporterPlugin</text>
</g>
<g id="clust3" class="cluster">
<title>cluster_HardwarePlugin</title>
<path fill="lightyellow" stroke="gray" stroke-width="2" d="M20,-123.05C20,-123.05 487,-123.05 487,-123.05 493,-123.05 499,-129.05 499,-135.05 499,-135.05 499,-425.45 499,-425.45 499,-431.45 493,-437.45 487,-437.45 487,-437.45 20,-437.45 20,-437.45 14,-437.45 8,-431.45 8,-425.45 8,-425.45 8,-135.05 8,-135.05 8,-129.05 14,-123.05 20,-123.05"/>
<text xml:space="preserve" text-anchor="middle" x="253.5" y="-420.15" font-family="Times,serif" font-size="14.00">HardwarePlugin</text>
</g>
<g id="clust4" class="cluster">
<title>cluster_BasePlugin</title>
<path fill="lightyellow" stroke="gray" stroke-width="2" d="M567,-353.15C567,-353.15 1059,-353.15 1059,-353.15 1065,-353.15 1071,-359.15 1071,-365.15 1071,-365.15 1071,-425.45 1071,-425.45 1071,-431.45 1065,-437.45 1059,-437.45 1059,-437.45 567,-437.45 567,-437.45 561,-437.45 555,-431.45 555,-425.45 555,-425.45 555,-365.15 555,-365.15 555,-359.15 561,-353.15 567,-353.15"/>
<text xml:space="preserve" text-anchor="middle" x="813" y="-420.15" font-family="Times,serif" font-size="14.00">BasePlugin</text>
</g>
<!-- ReporterA -->
<g id="node1" class="node">
<title>ReporterA</title>
<polygon fill="white" stroke="black" points="621.77,-289.15 532.23,-289.15 532.23,-246.1 621.77,-246.1 621.77,-289.15"/>
<text xml:space="preserve" text-anchor="middle" x="577" y="-263.35" font-family="Helvetica,sans-Serif" font-size="12.00">ReporterA</text>
</g>
<!-- ReporterFactory -->
<g id="node2" class="node">
<title>ReporterFactory</title>
<polygon fill="white" stroke="black" points="639.4,-174.1 514.6,-174.1 514.6,-131.05 639.4,-131.05 639.4,-174.1"/>
<text xml:space="preserve" text-anchor="middle" x="577" y="-148.3" font-family="Helvetica,sans-Serif" font-size="12.00">ReporterFactory</text>
</g>
<!-- ReporterA&#45;&gt;ReporterFactory -->
<g id="edge4" class="edge">
<title>ReporterA&#45;&gt;ReporterFactory</title>
<path fill="none" stroke="black" d="M577,-245.63C577,-228.81 577,-204.94 577,-185.72"/>
<polygon fill="black" stroke="black" points="580.5,-185.97 577,-175.97 573.5,-185.98 580.5,-185.97"/>
</g>
<!-- ReportFacade -->
<g id="node3" class="node">
<title>ReportFacade</title>
<polygon fill="white" stroke="black" points="632.27,-59.05 521.73,-59.05 521.73,-16 632.27,-16 632.27,-59.05"/>
<text xml:space="preserve" text-anchor="middle" x="577" y="-33.25" font-family="Helvetica,sans-Serif" font-size="12.00">ReportFacade</text>
</g>
<!-- ReporterA&#45;&gt;ReportFacade -->
<!-- ReporterFactory&#45;&gt;ReportFacade -->
<g id="edge3" class="edge">
<title>ReporterFactory&#45;&gt;ReportFacade</title>
<path fill="none" stroke="black" d="M577,-130.58C577,-113.76 577,-89.89 577,-70.67"/>
<polygon fill="black" stroke="black" points="580.5,-70.92 577,-60.92 573.5,-70.93 580.5,-70.92"/>
</g>
<!-- HardwareObserver -->
<g id="node4" class="node">
<title>HardwareObserver</title>
<polygon fill="white" stroke="black" points="491.02,-404.2 348.98,-404.2 348.98,-361.15 491.02,-361.15 491.02,-404.2"/>
<text xml:space="preserve" text-anchor="middle" x="420" y="-378.4" font-family="Helvetica,sans-Serif" font-size="12.00">HardwareObserver</text>
</g>
<!-- HardwareObserver&#45;&gt;ReporterA -->
<g id="edge7" class="edge">
<title>HardwareObserver&#45;&gt;ReporterA</title>
<path fill="none" stroke="black" d="M457.88,-360.69C476.25,-349.98 498.32,-336.3 517,-322.4 527.31,-314.73 537.95,-305.64 547.35,-297.13"/>
<polygon fill="black" stroke="black" points="549.49,-299.92 554.48,-290.57 544.75,-294.77 549.49,-299.92"/>
</g>
<!-- HardwareFactory -->
<g id="node7" class="node">
<title>HardwareFactory</title>
<polygon fill="white" stroke="black" points="430.02,-289.15 299.98,-289.15 299.98,-246.1 430.02,-246.1 430.02,-289.15"/>
<text xml:space="preserve" text-anchor="middle" x="365" y="-263.35" font-family="Helvetica,sans-Serif" font-size="12.00">HardwareFactory</text>
</g>
<!-- HardwareObserver&#45;&gt;HardwareFactory -->
<!-- HardwareObserver&#45;&gt;HardwareFactory -->
<g id="edge8" class="edge">
<title>HardwareObserver&#45;&gt;HardwareFactory</title>
<path fill="none" stroke="black" d="M431.34,-360.68C429.09,-343.15 417.68,-317.95 403.56,-298.35"/>
<polygon fill="black" stroke="black" points="406.51,-296.44 397.6,-290.71 400.99,-300.74 406.51,-296.44"/>
</g>
<!-- HardwareB -->
<g id="node5" class="node">
<title>HardwareB</title>
<polygon fill="white" stroke="black" points="110.4,-404.2 15.6,-404.2 15.6,-361.15 110.4,-361.15 110.4,-404.2"/>
<text xml:space="preserve" text-anchor="middle" x="63" y="-378.4" font-family="Helvetica,sans-Serif" font-size="12.00">HardwareB</text>
</g>
<!-- HardwareB&#45;&gt;HardwareFactory -->
<g id="edge9" class="edge">
<title>HardwareB&#45;&gt;HardwareFactory</title>
<path fill="none" stroke="black" d="M110.85,-363.76C161.4,-344.84 241.48,-314.86 298.23,-293.62"/>
<polygon fill="black" stroke="black" points="299.34,-296.94 307.48,-290.16 296.89,-290.38 299.34,-296.94"/>
</g>
<!-- HardwareA -->
<g id="node6" class="node">
<title>HardwareA</title>
<polygon fill="white" stroke="black" points="277.4,-404.2 182.6,-404.2 182.6,-361.15 277.4,-361.15 277.4,-404.2"/>
<text xml:space="preserve" text-anchor="middle" x="230" y="-378.4" font-family="Helvetica,sans-Serif" font-size="12.00">HardwareA</text>
</g>
<!-- HardwareA&#45;&gt;HardwareFactory -->
<g id="edge10" class="edge">
<title>HardwareA&#45;&gt;HardwareFactory</title>
<path fill="none" stroke="black" d="M255.08,-360.68C276.58,-342.67 307.74,-316.58 331.39,-296.77"/>
<polygon fill="black" stroke="black" points="333.48,-299.59 338.9,-290.48 328.98,-294.22 333.48,-299.59"/>
</g>
<!-- HardwareAbstraction -->
<g id="node8" class="node">
<title>HardwareAbstraction</title>
<polygon fill="white" stroke="black" points="442.4,-174.1 287.6,-174.1 287.6,-131.05 442.4,-131.05 442.4,-174.1"/>
<text xml:space="preserve" text-anchor="middle" x="365" y="-148.3" font-family="Helvetica,sans-Serif" font-size="12.00">HardwareAbstraction</text>
</g>
<!-- HardwareFactory&#45;&gt;HardwareAbstraction -->
<g id="edge5" class="edge">
<title>HardwareFactory&#45;&gt;HardwareAbstraction</title>
<path fill="none" stroke="black" d="M365,-245.63C365,-228.81 365,-204.94 365,-185.72"/>
<polygon fill="black" stroke="black" points="368.5,-185.97 365,-175.97 361.5,-185.98 368.5,-185.97"/>
</g>
<!-- HardwareAbstraction&#45;&gt;ReportFacade -->
<g id="edge6" class="edge">
<title>HardwareAbstraction&#45;&gt;ReportFacade</title>
<path fill="none" stroke="black" d="M404.38,-130.58C439.33,-111.94 490.54,-84.63 528.11,-64.6"/>
<polygon fill="black" stroke="black" points="529.32,-67.92 536.5,-60.12 526.03,-61.74 529.32,-67.92"/>
</g>
<!-- NumberService -->
<g id="node9" class="node">
<title>NumberService</title>
<polygon fill="white" stroke="black" points="684.9,-404.2 563.1,-404.2 563.1,-361.15 684.9,-361.15 684.9,-404.2"/>
<text xml:space="preserve" text-anchor="middle" x="624" y="-378.4" font-family="Helvetica,sans-Serif" font-size="12.00">NumberService</text>
</g>
<!-- DeferredService -->
<g id="node10" class="node">
<title>DeferredService</title>
<polygon fill="white" stroke="black" points="882.77,-404.2 757.23,-404.2 757.23,-361.15 882.77,-361.15 882.77,-404.2"/>
<text xml:space="preserve" text-anchor="middle" x="820" y="-378.4" font-family="Helvetica,sans-Serif" font-size="12.00">DeferredService</text>
</g>
<!-- StringService -->
<g id="node11" class="node">
<title>StringService</title>
<polygon fill="white" stroke="black" points="1063.15,-404.2 954.85,-404.2 954.85,-361.15 1063.15,-361.15 1063.15,-404.2"/>
<text xml:space="preserve" text-anchor="middle" x="1009" y="-378.4" font-family="Helvetica,sans-Serif" font-size="12.00">StringService</text>
</g>
</g>
</svg>
