<?xml version="1.0" encoding="UTF-8" standalone="no"?>
<!DOCTYPE svg PUBLIC "-//W3C//DTD SVG 1.1//EN"
 "http://www.w3.org/Graphics/SVG/1.1/DTD/svg11.dtd">
<!-- Generated by graphviz version 14.1.3 (0)
 -->
<!-- Pages: 1 -->
<svg width="973pt" height="453pt"
 viewBox="0.00 0.00 973.00 453.00" xmlns="http://www.w3.org/2000/svg" xmlns:xlink="http://www.w3.org/1999/xlink">
<g id="graph0" class="graph" transform="scale(1 1) rotate(0) translate(4 449.45)">
<polygon fill="white" stroke="none" points="-4,4 -4,-449.45 969,-449.45 969,4 -4,4"/>
<g id="clust1" class="cluster">
<title>cluster_BasePlugin</title>
<path fill="lightyellow" stroke="gray" stroke-width="2" d="M20,-238.1C20,-238.1 134,-238.1 134,-238.1 140,-238.1 146,-244.1 146,-250.1 146,-250.1 146,-425.45 146,-425.45 146,-431.45 140,-437.45 134,-437.45 134,-437.45 20,-437.45 20,-437.45 14,-437.45 8,-431.45 8,-425.45 8,-425.45 8,-250.1 8,-250.1 8,-244.1 14,-238.1 20,-238.1"/>
<text xml:space="preserve" text-anchor="middle" x="77" y="-420.15" font-family="Times,serif" font-size="14.00">BasePlugin</text>
</g>
<g id="clust2" class="cluster">
<title>cluster_ReporterPlugin</title>
<path fill="lightyellow" stroke="gray" stroke-width="2" d="M755,-8C755,-8 945,-8 945,-8 951,-8 957,-14 957,-20 957,-20 957,-310.4 957,-310.4 957,-316.4 951,-322.4 945,-322.4 945,-322.4 755,-322.4 755,-322.4 749,-322.4 743,-316.4 743,-310.4 743,-310.4 743,-20 743,-20 743,-14 749,-8 755,-8"/>
<text xml:space="preserve" text-anchor="middle" x="850" y="-305.1" font-family="Times,serif" font-size="14.00">ReporterPlugin</text>
</g>
<g id="clust4" class="cluster">
<title>cluster_HardwarePlugin</title>
<path fill="lightyellow" stroke="gray" stroke-width="2" d="M214,-8C214,-8 675,-8 675,-8 681,-8 687,-14 687,-20 687,-20 687,-425.45 687,-425.45 687,-431.45 681,-437.45 675,-437.45 675,-437.45 214,-437.45 214,-437.45 208,-437.45 202,-431.45 202,-425.45 202,-425.45 202,-20 202,-20 202,-14 208,-8 214,-8"/>
<text xml:space="preserve" text-anchor="middle" x="444.5" y="-420.15" font-family="Times,serif" font-size="14.00">HardwarePlugin</text>
</g>
<!-- StringService -->
<g id="node1" class="node">
<title>StringService</title>
<polygon fill="white" stroke="black" points="131.15,-404.2 22.85,-404.2 22.85,-361.15 131.15,-361.15 131.15,-404.2"/>
<text xml:space="preserve" text-anchor="middle" x="77" y="-378.4" font-family="Helvetica,sans-Serif" font-size="12.00">StringService</text>
</g>
<!-- NumberService -->
<g id="node2" class="node">
<title>NumberService</title>
<polygon fill="white" stroke="black" points="137.9,-289.15 16.1,-289.15 16.1,-246.1 137.9,-246.1 137.9,-289.15"/>
<text xml:space="preserve" text-anchor="middle" x="77" y="-263.35" font-family="Helvetica,sans-Serif" font-size="12.00">NumberService</text>
</g>
<!-- StringService&#45;&gt;NumberService -->
<!-- ReporterA -->
<g id="node3" class="node">
<title>ReporterA</title>
<polygon fill="white" stroke="black" points="840.77,-289.15 751.23,-289.15 751.23,-246.1 840.77,-246.1 840.77,-289.15"/>
<text xml:space="preserve" text-anchor="middle" x="796" y="-263.35" font-family="Helvetica,sans-Serif" font-size="12.00">ReporterA</text>
</g>
<!-- ReporterFactory -->
<g id="node4" class="node">
<title>ReporterFactory</title>
<polygon fill="white" stroke="black" points="949.4,-174.1 824.6,-174.1 824.6,-131.05 949.4,-131.05 949.4,-174.1"/>
<text xml:space="preserve" text-anchor="middle" x="887" y="-148.3" font-family="Helvetica,sans-Serif" font-size="12.00">ReporterFactory</text>
</g>
<!-- ReporterA&#45;&gt;ReporterFactory -->
<g id="edge8" class="edge">
<title>ReporterA&#45;&gt;ReporterFactory</title>
<path fill="none" stroke="black" d="M812.9,-245.63C827.01,-228.1 847.29,-202.9 863.07,-183.3"/>
<polygon fill="black" stroke="black" points="865.69,-185.62 869.24,-175.64 860.24,-181.24 865.69,-185.62"/>
</g>
<!-- ReportFacade -->
<g id="node5" class="node">
<title>ReportFacade</title>
<polygon fill="white" stroke="black" points="901.27,-59.05 790.73,-59.05 790.73,-16 901.27,-16 901.27,-59.05"/>
<text xml:space="preserve" text-anchor="middle" x="846" y="-33.25" font-family="Helvetica,sans-Serif" font-size="12.00">ReportFacade</text>
</g>
<!-- ReporterA&#45;&gt;ReportFacade -->
<!-- ReporterFactory&#45;&gt;ReportFacade -->
<g id="edge9" class="edge">
<title>ReporterFactory&#45;&gt;ReportFacade</title>
<path fill="none" stroke="black" d="M857.83,-130.58C845.71,-113.76 836.02,-89.89 833.03,-70.67"/>
<polygon fill="black" stroke="black" points="836.53,-70.58 832.19,-60.92 829.56,-71.18 836.53,-70.58"/>
</g>
<!-- ReportFacade&#45;&gt;ReporterFactory -->
<!-- HardwareObserver -->
<g id="node6" class="node">
<title>HardwareObserver</title>
<polygon fill="white" stroke="black" points="673.02,-404.2 530.98,-404.2 530.98,-361.15 673.02,-361.15 673.02,-404.2"/>
<text xml:space="preserve" text-anchor="middle" x="602" y="-378.4" font-family="Helvetica,sans-Serif" font-size="12.00">HardwareObserver</text>
</g>
<!-- HardwareObserver&#45;&gt;ReporterA -->
<g id="edge11" class="edge">
<title>HardwareObserver&#45;&gt;ReporterA</title>
<path fill="none" stroke="black" d="M638.77,-360.65C658.44,-349.37 683.08,-335.18 705,-322.4 720.07,-313.61 736.5,-303.94 751.19,-295.24"/>
<polygon fill="black" stroke="black" points="752.93,-298.28 759.75,-290.17 749.36,-292.26 752.93,-298.28"/>
</g>
<!-- HardwareA -->
<g id="node7" class="node">
<title>HardwareA</title>
<polygon fill="white" stroke="black" points="649.4,-289.15 554.6,-289.15 554.6,-246.1 649.4,-246.1 649.4,-289.15"/>
<text xml:space="preserve" text-anchor="middle" x="602" y="-263.35" font-family="Helvetica,sans-Serif" font-size="12.00">HardwareA</text>
</g>
<!-- HardwareObserver&#45;&gt;HardwareA -->
<!-- HardwareFactory -->
<g id="node10" class="node">
<title>HardwareFactory</title>
<polygon fill="white" stroke="black" points="470.02,-59.05 339.98,-59.05 339.98,-16 470.02,-16 470.02,-59.05"/>
<text xml:space="preserve" text-anchor="middle" x="405" y="-33.25" font-family="Helvetica,sans-Serif" font-size="12.00">HardwareFactory</text>
</g>
<!-- HardwareObserver&#45;&gt;HardwareFactory -->
<g id="edge10" class="edge">
<title>HardwareObserver&#45;&gt;HardwareFactory</title>
<path fill="none" stroke="black" d="M541.16,-360.68C467.72,-331.65 347.63,-271.52 296,-174.1 274.03,-132.65 318.85,-91.59 357.5,-65.7"/>
<polygon fill="black" stroke="black" points="359.39,-68.65 365.88,-60.28 355.58,-62.77 359.39,-68.65"/>
</g>
<!-- HardwareAbstraction -->
<g id="node8" class="node">
<title>HardwareAbstraction</title>
<polygon fill="white" stroke="black" points="679.4,-174.1 524.6,-174.1 524.6,-131.05 679.4,-131.05 679.4,-174.1"/>
<text xml:space="preserve" text-anchor="middle" x="602" y="-148.3" font-family="Helvetica,sans-Serif" font-size="12.00">HardwareAbstraction</text>
</g>
<!-- HardwareA&#45;&gt;HardwareAbstraction -->
<!-- HardwareA&#45;&gt;HardwareFactory -->
<g id="edge12" class="edge">
<title>HardwareA&#45;&gt;HardwareFactory</title>
<path fill="none" stroke="black" d="M554.18,-266.64C489.25,-263.75 375.23,-247.75 322,-174.1 296.18,-138.37 334.89,-94.45 367.66,-66.47"/>
<polygon fill="black" stroke="black" points="369.61,-69.4 375.08,-60.33 365.15,-64 369.61,-69.4"/>
</g>
<!-- HardwareAbstraction&#45;&gt;ReportFacade -->
<g id="edge13" class="edge">
<title>HardwareAbstraction&#45;&gt;ReportFacade</title>
<path fill="none" stroke="black" d="M647.32,-130.58C687.81,-111.82 747.25,-84.28 790.56,-64.21"/>
<polygon fill="black" stroke="black" points="791.94,-67.43 799.55,-60.05 789,-61.08 791.94,-67.43"/>
</g>
<!-- HardwareAbstraction&#45;&gt;HardwareFactory -->
<!-- HardwareB -->
<g id="node9" class="node">
<title>HardwareB</title>
<polygon fill="white" stroke="black" points="452.4,-174.1 357.6,-174.1 357.6,-131.05 452.4,-131.05 452.4,-174.1"/>
<text xml:space="preserve" text-anchor="middle" x="405" y="-148.3" font-family="Helvetica,sans-Serif" font-size="12.00">HardwareB</text>
</g>
<!-- HardwareB&#45;&gt;HardwareFactory -->
<g id="edge15" class="edge">
<title>HardwareB&#45;&gt;HardwareFactory</title>
<path fill="none" stroke="black" d="M383.45,-130.58C377.39,-113.68 376.39,-89.67 380.43,-70.4"/>
<polygon fill="black" stroke="black" points="383.77,-71.44 383.08,-60.87 377.03,-69.56 383.77,-71.44"/>
</g>
<!-- HardwareFactory&#45;&gt;HardwareAbstraction -->
<g id="edge14" class="edge">
<title>HardwareFactory&#45;&gt;HardwareAbstraction</title>
<path fill="none" stroke="black" d="M462.91,-59.41C501.2,-77.62 548.13,-104.16 577.65,-124.09"/>
<polygon fill="black" stroke="black" points="575.51,-126.87 585.72,-129.71 579.51,-121.12 575.51,-126.87"/>
</g>
<!-- HardwareFactory&#45;&gt;HardwareB -->
</g>
</svg>
